<?xml version="1.0" encoding="UTF-8"?>
<svg xmlns="http://www.w3.org/2000/svg" viewBox="0 0 1200 900" preserveAspectRatio="xMidYMid slice">
  <defs>
    <linearGradient id="test-sky" x1="0%" y1="0%" x2="0%" y2="100%">
      <stop offset="0%" stop-color="#f0c890"/>
      <stop offset="40%" stop-color="#f5d8a8"/>
      <stop offset="100%" stop-color="#f8e6c0"/>
    </linearGradient>
    <radialGradient id="test-sun" cx="68%" cy="38%" r="22%">
      <stop offset="0%" stop-color="#fce5b8" stop-opacity="0.9"/>
      <stop offset="100%" stop-color="#fce5b8" stop-opacity="0"/>
    </radialGradient>
    <linearGradient id="test-ocean" x1="0%" y1="0%" x2="0%" y2="100%">
      <stop offset="0%" stop-color="#88a4a8"/>
      <stop offset="100%" stop-color="#5a7d80"/>
    </linearGradient>
    <linearGradient id="test-grass-far" x1="0%" y1="0%" x2="0%" y2="100%">
      <stop offset="0%" stop-color="#a89860"/>
      <stop offset="100%" stop-color="#7a8a4c"/>
    </linearGradient>
    <linearGradient id="test-grass-near" x1="0%" y1="0%" x2="0%" y2="100%">
      <stop offset="0%" stop-color="#9a8438"/>
      <stop offset="100%" stop-color="#5c4e22"/>
    </linearGradient>
    <filter id="test-grain">
      <feTurbulence type="fractalNoise" baseFrequency="0.8" numOctaves="2" seed="11"/>
      <feColorMatrix values="0 0 0 0 0  0 0 0 0 0  0 0 0 0 0  0 0 0 0.05 0"/>
    </filter>
  </defs>

  <!-- Sky -->
  <rect width="1200" height="900" fill="url(#test-sky)"/>
  <!-- Sun glow -->
  <rect width="1200" height="900" fill="url(#test-sun)"/>

  <!-- Distant cliff/headland silhouette -->
  <path d="M 0,490 L 80,478 L 180,485 L 280,472 L 380,482 L 460,470 L 540,478 L 600,475 L 600,510 L 0,510 Z"
        fill="#7d8d80" opacity="0.6"/>

  <!-- Ocean horizon -->
  <rect x="0" y="500" width="1200" height="48" fill="url(#test-ocean)"/>

  <!-- Subtle wave lines on ocean -->
  <g stroke="#7a9598" stroke-width="0.8" fill="none" opacity="0.4">
    <path d="M 0,520 Q 200,518 400,521 T 800,520 T 1200,520"/>
    <path d="M 0,535 Q 250,533 500,536 T 1000,535 T 1200,535"/>
  </g>

  <!-- Cliff edge dark band -->
  <path d="M 0,548 L 120,545 L 280,552 L 460,548 L 660,556 L 880,549 L 1100,558 L 1200,552 L 1200,580 L 0,580 Z"
        fill="#5a6648"/>

  <!-- Far grass slope -->
  <path d="M 0,580 L 1200,570 L 1200,720 L 0,720 Z"
        fill="url(#test-grass-far)"/>

  <!-- Near grass tufts foreground -->
  <path d="M 0,700 L 1200,690 L 1200,900 L 0,900 Z"
        fill="url(#test-grass-near)"/>

  <!-- Grass texture strokes -->
  <g stroke="#bca06c" stroke-width="2" stroke-linecap="round" opacity="0.5">
    <line x1="80" y1="780" x2="84" y2="745"/>
    <line x1="120" y1="800" x2="118" y2="760"/>
    <line x1="180" y1="790" x2="186" y2="755"/>
    <line x1="240" y1="810" x2="236" y2="770"/>
    <line x1="320" y1="800" x2="328" y2="760"/>
    <line x1="400" y1="820" x2="396" y2="775"/>
    <line x1="490" y1="810" x2="498" y2="765"/>
    <line x1="580" y1="830" x2="576" y2="780"/>
    <line x1="680" y1="820" x2="688" y2="772"/>
    <line x1="780" y1="840" x2="776" y2="785"/>
    <line x1="880" y1="830" x2="888" y2="780"/>
    <line x1="980" y1="850" x2="976" y2="790"/>
    <line x1="1080" y1="840" x2="1088" y2="785"/>
    <line x1="1160" y1="855" x2="1156" y2="795"/>
  </g>

  <!-- Lone foreground grass clump -->
  <g fill="#3d3018" opacity="0.7">
    <path d="M 200,860 Q 210,820 220,860 Q 215,825 232,855 Q 224,820 240,860 Q 232,830 250,855 Z"/>
    <path d="M 700,870 Q 715,825 730,870 Q 720,830 745,860 Q 735,825 755,865 Z"/>
  </g>

  <!-- Grain -->
  <rect width="1200" height="900" filter="url(#test-grain)"/>
</svg>
